<?xml version="1.0" encoding="UTF-8"?>
<svg id="Layer_1" data-name="Layer 1" xmlns="http://www.w3.org/2000/svg" viewBox="0 0 162.99 37.46">
  <defs>
    <style>
      .cls-1 {
        fill: #f8efd0;
      }

      .cls-2 {
        fill: #fcf5db;
      }

      .cls-3 {
        fill: #f2e9d2;
      }

      .cls-4 {
        fill: #f9edd2;
      }

      .cls-5 {
        fill: #f4d6aa;
      }

      .cls-6 {
        fill: #f4d6a9;
      }

      .cls-7 {
        fill: #fefada;
      }

      .cls-8 {
        fill: #fbeeda;
      }

      .cls-9 {
        fill: #fdfbd4;
      }

      .cls-10 {
        fill: #f5d7ac;
      }

      .cls-11 {
        fill: #f3d3a6;
      }

      .cls-12 {
        fill: #f9eddc;
      }

      .cls-13 {
        fill: #b0a39d;
      }

      .cls-14 {
        fill: #fefcd9;
      }

      .cls-15 {
        fill: #fdf6dc;
      }

      .cls-16 {
        fill: #f4d6ac;
      }

      .cls-17 {
        fill: #f4d4a9;
      }

      .cls-18 {
        fill: #fef7d7;
      }

      .cls-19 {
        fill: #f3d3a7;
      }

      .cls-20 {
        fill: #f5d7a9;
      }

      .cls-21 {
        fill: #f3d4a9;
      }
    </style>
  </defs>
  <path class="cls-6" d="M42.12,2.31c1.96,5.11,3.62,10.32,5.48,15.52,.01-.27,.04-.53,.04-.8,0-3.82-.03-7.65,0-11.47,.02-1.86,.05-3.69-1.28-5.4h6.69c0,.43-.41,.63-.57,.97-.69,.86-.94,1.84-.94,2.95,.02,7.58,.03,15.16-.03,22.75-.01,1.45,.73,2.52,1.35,3.76-1.5,.36-3,.3-4.48,.5-.6,.08-.67-.31-.77-.76-1.34-5.77-3.31-11.35-5.03-17.01-.05-.16,0-.4-.34-.49,0,5.27-.01,10.5,.01,15.74,0,.95,.56,1.75,1,2.55,.26,.47,.14,.58-.34,.63-2.19,.22-4.37,.46-6.69,.71,1.14-2.06,2.48-4.01,2.04-6.48-.1-1.47-.1-2.93,0-4.4,.03-.81-.05-1.6-.51-2.29-.48-.72,.56-1.12,.36-1.78,.19-2.7,.07-5.4,.07-8.1,0-2.23,.14-4.47-.09-6.7,0-.96-.85-1.62-.94-2.55,1.24-.14,2.47-.09,3.71-.02,.69,.56,.82,1.43,1.22,2.15Z"/>
  <path class="cls-20" d="M11.15,22.22c.09,.37,.09,.77,.06,1.15-.07,.84-.08,1.68-.08,2.53,0,.02,0,.05,0,.07,.02,.12,.03,.27,.03,.45-.03,1.24-.06,2.48,0,3.71,.05,.87-.32,1.14-1.11,1.24-1.34,.17-2.67,.43-4,.64-.46,.08-.92,.06-1.33-.21-.52-.39-.41-.96-.41-1.49,0-8.41,0-16.83,0-25.24,0-.27-.01-.54,0-.81,.04-.4,.27-.66,.67-.65,2,.05,4-.18,5.99,.13,.3,.35,.31,.77,.31,1.2,0,1-.03,2.01,0,3.01,.03,.76-.33,1.68,.17,2.23,.44,.49,1.32,.04,2,.11,.31,.03,.61,.03,.92,.04,.61,.02,.94-.26,1-.87,.05-.46,.07-.92,.08-1.38,.04-2.15-.04-4.3-.17-6.45-.45-1.03-1.24-1.51-2.36-1.5-3.29,.02-6.58,.03-9.87,0C1.77,.12,.86,.67,.33,1.86c-.06,3.01-.22,6.03-.16,9.04,.04,2.2,.04,4.39,0,6.58-.11,5.37,.07,10.75,.1,16.12,0,.47,.09,.92,.22,1.37,.49,1.09,1.31,1.51,2.5,1.3,2.88-.49,5.76-1.04,8.66-1.41,3.12-.4,3.88-2.37,3.92-4.71,.05-2.86,.03-5.71,.04-8.57-1.48,.22-2.96,.45-4.44,.65Z"/>
  <path class="cls-5" d="M126.44,3.75c-1.31,.05-2.62,.13-3.93,.12-.63,0-.76,.21-.76,.79,.02,3.98-.13,7.97,.07,11.95,.08,1.63,.28,3.17,0,4.84-.33,2.03-.09,4.16-.08,6.25,0,.95,.42,1.78,.81,2.62,.25,.55,.55,1.08,.87,1.71-2.63-.28-5.14-.54-7.66-.81,0-.15-.03-.26,0-.3,1.53-1.66,2.05-3.61,1.84-5.85-.13-1.38,.17-2.82-.07-4.17-.28-1.63-.11-3.17-.02-4.78,.2-3.78,.04-7.58,.07-11.37,0-.73-.15-1-.95-.96-1.43,.07-2.86-.02-4.29,.01-.61,.01-.91-.1-.84-.81,.08-.84,.03-1.7,.04-2.55,.28-.19,.6-.11,.9-.11,4.47,0,8.94,.02,13.41-.02,.84,0,1.14,.18,1.12,1.08-.04,2.18,0,2.19-2.2,2.18-.58,0-1.16,0-1.52,0,.92,.15,2.07-.22,3.19,.16Z"/>
  <path class="cls-4" d="M.33,1.86c.33,1.8,.22,3.61,.07,5.41-.12,1.43-.12,2.83,0,4.26,.13,1.6,.16,3.22,.05,4.82-.27,4.13-.26,8.24,0,12.37,.13,2.08,.03,4.17,.03,6.26-.35-.39-.44-.86-.44-1.37,0-10.11,0-20.22,0-30.33,0-.38,.05-.77,.07-1.15,.07-.09,.14-.17,.21-.26Z"/>
  <path class="cls-15" d="M88.51,1.57c.06,.04,.13,.06,.2,.06,.41,.44,.56,.98,.58,1.58,.11,3.78,.09,7.55,0,11.33-.01,.49-.03,1.01-.53,1.32,.37-1.43,.19-2.9,.21-4.35,.03-2.15,0-4.3,.01-6.45,0-1.19,.05-2.37-.47-3.49Z"/>
  <path class="cls-3" d="M126.44,3.75h-4.44c0-.1,0-.19,0-.29,1.26,0,2.53-.04,3.79,.02,.82,.04,1.07-.27,1.05-1.07-.06-2.29,.17-1.94-1.88-1.95-4.47-.02-8.95,0-13.42,0,.14-.5,.56-.29,.85-.3,4.63-.02,9.26-.02,13.89-.05,.64,0,.9,.14,.84,.82-.07,.73-.05,1.47-.02,2.2,.02,.5-.14,.73-.66,.62Z"/>
  <path class="cls-7" d="M142.86,17.15c-.49-.2-.24-.62-.24-.92-.02-4.21-.05-8.42,.02-12.63,.01-.85-.37-1.61-.32-2.43,.09,.08,.19,.16,.28,.25,.1,.38,.2,.76,.3,1.14,.08,4.86,.16,9.73-.04,14.59Z"/>
  <path class="cls-8" d="M147.12,.04c.08,0,.16-.02,.25-.03,1.38,.22,2.76,.07,4.14,.1,2.84,.06,5.69-.08,8.53,.07,.23,.11,.47,.22,.7,.34-4.03-.02-8.06-.04-12.09-.05-.5,0-1.17-.2-1.14,.7-.34-.02-.14-.49-.44-.54-.06-.2-.16-.41,.06-.58Z"/>
  <path class="cls-12" d="M87.84,1.13c.2,.01,.41,.01,.5,.25-4.16,0-8.32,.02-12.49,0-.57,0-1.14-.14-1.71-.21-.01-.08-.03-.16-.04-.24,.41-.22,.84-.12,1.27-.06,3.73,.22,7.47,.16,11.21,.17,.42,0,.85-.08,1.26,.08Z"/>
  <path class="cls-1" d="M130.29,32.28c.95-.53,1.86,.02,2.77,.13,2.55,.3,5.06,.91,7.63,1.02,1.54,.06,1.92-.35,1.92-1.88,0-3.51,0-7.02,0-10.53,0-.48-.12-1.04,.51-1.28-.02,.23-.03,.46-.05,.69-.24,.98-.09,1.98-.11,2.98-.06,3.03,.08,6.07-.07,9.1-.42,1.47-1.91,1.49-3.5,1.29-1.9-.24-3.79-.53-5.67-.88-1.15-.22-2.36-.05-3.44-.63Z"/>
  <path class="cls-9" d="M161.86,18.8c-.36-.4-.2-.88-.2-1.33-.01-4.39-.04-8.78,.02-13.17,.01-1.07-.46-2.07-.29-3.14,.35,.44,.5,.94,.5,1.49,0,5.38-.02,10.77-.03,16.15Z"/>
  <path class="cls-14" d="M4.73,31.8c-.85-.17-.51-.85-.51-1.32-.02-7.54-.02-15.07-.02-22.61,0-1.12,0-2.24,0-3.36,0-.55,.1-1.04,.79-1.04,1.93,0,3.86,0,5.8,.03,.13,0,.25,.15,.38,.23,.1,.21,0,.23-.18,.2-1.27-.45-2.57-.13-3.86-.16-2.68-.06-2.68-.02-2.68,2.7,0,7.72,0,15.45,0,23.17,0,.73-.1,1.47,.27,2.15Z"/>
  <path class="cls-2" d="M10.98,3.94c.06-.07,.12-.13,.18-.2,.45,.45,.22,1.02,.23,1.54,.04,1.31,.01,2.62,.02,3.92,0,.26-.03,.69,.11,.76,.95,.54,2,.05,3,.19,.54,.07,.69-.5,.72-.99,.13-1.88,.21-3.75-.06-5.63-.09-.63-.25-1.29,.11-1.91,.58,1.89,.2,3.84,.27,5.75,.04,.99,.43,2.3-.17,2.9-.6,.6-1.91,.06-2.9,.18-1.08,.14-1.45-.16-1.4-1.33,.08-1.73,.17-3.47-.11-5.2Z"/>
  <path class="cls-13" d="M75.26,.96c1.09-.02,2.17-.05,3.26-.07,3.09,.02,6.19,.05,9.28,.07,0,.06,.02,.12,.04,.17-3.94,0-7.88,.01-11.81,.02-.27,0-.54,0-.77-.18Z"/>
  <path class="cls-11" d="M159.03,20.05c1.13-.13,2.43,.27,2.83-1.25-.16-.41-.08-.84-.08-1.26,0-4.4-.02-8.79,0-13.19,0-1.09-.09-2.15-.4-3.19-.07-.15-.15-.3-.22-.46-.07-.06-.15-.13-.22-.19-.11-.11-.23-.18-.37-.23-.44-.16-.91-.16-1.37-.16-3.42,0-6.84,0-10.27,0-.31,0-.62-.02-.92,.05-.56,.12-.81,.42-.52,.99,.2,.35,.49,.67,.47,1.11,.17,.29,.1,.6,.1,.91,0,9.1,0,18.2,0,27.3,0,.3,.07,.62-.1,.91-.33,1.01-1.1,1.75-1.65,2.62-.37,.59-.31,.73,.38,.84,1.07,.16,2.12,.46,3.19,.64,1.2,.21,2.42,.36,3.75,.55-.56-1.42-1.25-2.63-1.26-4-.04-3.98,0-7.97,.01-11.95,0-.22-.17-.51,.27-.63,1.19-.31,2.02,.25,2.28,1.47,1.05,4.89,2.13,9.77,3.19,14.66,.1,.44,.18,.84,.69,.95,1.37,.3,2.75,.6,4.17,.9-1.6-5.83-2.52-11.65-3.95-17.4Zm-1.47-5.28c0,.94-.44,1.32-1.37,1.24-1.07-.09-2.15-.19-3.23-.21-.59-.01-.58-.32-.58-.74,.01-1.77,0-3.55,0-5.32h.01c0-1.7,.03-3.4-.01-5.09-.02-.63,.12-.91,.81-.87,1.19,.06,2.39,.06,3.59,.02,.6-.02,.81,.19,.81,.79-.03,3.39-.03,6.79-.04,10.18Z"/>
  <path class="cls-19" d="M143.36,18.46c-.22-.35-.34-.76-.31-1.19-.06-.12-.11-.24-.16-.37-.09-4.08-.03-8.16-.03-12.25,0-1.2,0-2.38-.54-3.49-.45-.72-1.13-.97-1.95-1.01-2.93-.12-5.85-.05-8.78-.03-.99,0-1.8,.29-2.44,1.04-.4,.6-.45,1.29-.45,1.98,0,4.17,0,8.35,.02,12.52,0,1.01-.06,1.99-.59,2.87-.17,.29-.24,.62-.06,.87,.61,.82,.61,1.75,.61,2.69,.01,2.47,0,4.95,.04,7.42,.02,1.19,.34,2.24,1.56,2.76,3.06,.28,6.07,.9,9.12,1.3,2.18,.28,3.58,.17,3.47-2.77-.12-3.2-.03-6.42-.02-9.63,0-.49-.12-1.02,.27-1.44,.47-.35,.56-.76,.23-1.28Zm-6.17,11.28c-3.97-.17-4.07-.24-4.2-4.15,0-.19-.05-.38-.08-.57-.23-.22-.15-.51-.15-.77,0-5.56,0-11.13,0-16.69,0-.26-.08-.55,.15-.77,.03-.23,.08-.45,.08-.68q.07-2.37,2.5-2.36c.62,0,1.24,.06,1.85-.01,1.04-.13,1.32,.3,1.32,1.3-.03,7.15-.01,14.3,0,21.46,0,.62-.05,1.24,.02,1.85,.13,1.17-.39,1.44-1.48,1.39Z"/>
  <path class="cls-18" d="M132.9,6.79c0,6.08,0,12.15,0,18.23v2.99c-.07,0-.14,0-.2,0V4.03s.05,0,.08,0c.04,.92,.09,1.84,.13,2.76Z"/>
  <path class="cls-17" d="M89.24,26.9c-1.07-3.01-1.74-6.14-2.58-9.22-.12-.45-.17-.77,.53-.79,.67-.01,1.21-.43,1.57-1.03,.22-.41,.31-.84,.35-1.31,.22-3.26,.08-6.53,.08-9.79,0-1.05,.06-2.16-.55-3.12-.05-.25-.21-.39-.44-.46-3.81-.06-7.62,.05-11.43-.1-.86-.03-1.75-.3-2.6,.1,.84,1.05,1.02,2.26,.99,3.58-.05,2.36-.06,4.72,.03,7.08,.05,1.32-.64,2.49-.71,3.66-.07,1.18,.82,2.41,.73,3.78-.09,1.35-.11,2.72,.02,4.06,.21,2.25-.18,4.29-1.61,6.09-.1,.12-.14,.27-.06,.36h7c-.61-1.2-1.24-2.21-1.22-3.46,.04-2.75,.03-5.5,.05-8.24,0-.26-.11-.65,.17-.74,.74-.26,1.53-.12,2.29-.1,.6,.02,.49,.65,.57,1,.91,3.58,1.77,7.17,2.66,10.75,.1,.39,.14,.93,.69,.94,1.71,.03,3.41,.01,5.28,.01-.88-1.01-1.43-1.99-1.8-3.04Zm-3.99-14.85c0,.95-.37,1.42-1.38,1.39-1.31-.05-2.63-.04-3.94,0-.56,.02-.64-.21-.63-.68,.02-1.27,0-2.55,0-3.82h.01c0-1.12,.06-2.24-.02-3.36-.06-.97,.16-1.4,1.25-1.31,1.23,.11,2.47,.03,3.7,0,.74-.01,1.01,.31,1,1.05-.03,2.24-.03,4.48-.02,6.72Z"/>
  <path class="cls-10" d="M34.87,31.57c-.13-.1-.05-.35-.26-.39-1.56-1.63-1.81-3.62-1.61-5.74-.25-.88,.03-1.79-.17-2.68,0-.47,0-.93,0-1.4,.46-.73,.56-1.39-.06-2.17-.5-.62-.62-1.47-.71-2.28-.34-2.99-.75-5.97-1.05-8.97-.27-2.6-1.09-5.32,1.16-7.54,.02-.02-.04-.13-.05-.17h-10.37c.9,1.34,1.65,2.56,1.48,4.15-.43,4.1-.95,8.2-1.52,12.28-.23,1.66-.38,3.3-1.65,4.57-.14,.14-.27,.48-.2,.62,.63,1.21,.17,2.44,.09,3.64-.16,2.55-.05,5.21-2.05,7.26-.32,.49-.64,.97-1.09,1.66,2.44-.38,4.63-.72,6.83-1.06,.39-.06,.64-.19,.36-.68-1.31-2.34-.52-4.82-.46-7.25,.02-.66,.34-.78,.94-.82,1.11-.06,2.23-.19,3.32-.4,.76-.14,1.04,.03,1.07,.81,.1,2.73,.79,5.48-.64,8.2,2.23-.06,4.19-.58,6.18-.69,1.05-.06,.82-.42,.42-.98Zm-7.1-11.03c-1.11,.07-2.21,.26-3.46,.41,.79-5.36,1.57-10.6,2.34-15.84,.82,3.5,1.11,7,1.47,10.49,.13,1.27,.26,2.53,.44,3.79,.09,.66,.04,1.1-.8,1.15Z"/>
  <path class="cls-21" d="M110.54,30.94c.02-.57-.33-.86-.54-1.2-1.06-1.66-1.72-3.41-1.58-5.44,.09-1.31-.49-2.83,.01-3.89,.77-1.63-.71-2.3-.85-3.47-.01-.12-.02-.23-.03-.35-.38-3.45-.77-6.91-1.12-10.36-.19-1.92-.42-3.86,1.12-5.44,.02-.02-.04-.12-.08-.21-.67,.1-1.32,.45-2.02,.28-1.26-.15-2.52-.07-3.78-.06-1.67,.02-3.35-.15-5.02,.11,1.48,1.92,1.5,4.09,1.16,6.36-.25,1.68-.34,3.38-.56,5.07-.2,1.56-.17,3.27-.83,4.63-.65,1.33-1.03,2.34-.88,3.95,.29,3.08,.38,6.37-2.23,8.84-.02,.02,0,.07,0,.17,2.24,.28,4.49,.22,6.88,.26-.27-.62-.5-1.1-.68-1.59-.75-2.06-.04-4.12,.01-6.17,1.3-.39,2.59,.08,3.89,0,.08,0,.15,.02,.23,.02,.5-.03,.64,.23,.66,.71,.1,2.41,.69,4.84-.6,7.29,2.38,.17,4.59,.33,6.83,.48Zm-7.38-12.12c-.92-.11-1.85-.09-2.77-.15-.33-.02-.66-.03-.57-.6,.66-4.45,1.13-8.93,2.06-13.33,0-.02,.06-.04,.33-.2,.32,2.26,.63,4.41,.92,6.58,.3,2.25,.54,4.51,.87,6.76,.11,.75,0,1.05-.84,.95Z"/>
  <path class="cls-16" d="M70.76,28.77c-1.1-1.47-1.54-3.07-1.58-4.94-.05-2.48,.26-4.91-.66-7.47-.97-2.69-.83-5.78-1.14-8.7-.24-2.25-.55-4.52,.94-6.52-1.93-.38-3.89-.03-5.83-.22-1.31-.23-2.62-.12-3.92-.05-.8-.03-.45,.33-.22,.65,1.28,1.23,.91,2.77,.75,4.24-.37,3.2-.78,6.41-1.25,9.6-.16,1.09-.19,2.28-1.27,3.06-.24,.17-.51,.67-.29,1.04,.43,.74,.4,1.53,.41,2.33,.02,2.36,.15,4.74-1.17,6.87-.39,.62-.77,1.25-1.27,2.07,2.42-.17,4.59-.32,6.95-.49-1.73-2.63-.66-5.27-.64-7.85,0-.48,.29-.54,.69-.54,1.04,0,2.09,0,3.13-.06,.67-.04,.92,.22,.89,.85-.12,2.32,.73,4.7-.4,6.96-.11,.21-.22,.58,.25,.56,2.09-.08,4.18-.18,6.4-.28-.33-.47-.53-.8-.76-1.1Zm-6.78-10.61c-.73-.04-1.47,.03-2.19,.1-.68,.06-1.07,.02-.93-.88,.61-3.95,1.15-7.92,1.73-11.88,.03-.21,.15-.41,.23-.62,.1,.02,.19,.03,.29,.05,.34,2.42,.68,4.85,1,7.27,.23,1.68,.41,3.36,.67,5.03,.11,.71-.06,.97-.81,.93Z"/>
</svg>